{
    "asset" : {
        "generator" : "Khronos glTF Blender I/O v1.2.75",
        "version" : "2.0"
    },
    "scene" : 0,
    "scenes" : [
        {
            "name" : "Arcade",
            "nodes" : [
                0
            ]
        }
    ],
    "nodes" : [
        {
            "mesh" : 0,
            "name" : "Sphere.011"
        }
    ],
    "materials" : [
        {
            "doubleSided" : true,
            "emissiveFactor" : [
                0,
                0,
                0
            ],
            "name" : "Matcap jaune",
            "pbrMetallicRoughness" : {
                "baseColorFactor" : [
                    0.8148465752601624,
                    0.5520114898681641,
                    0.14412856101989746,
                    1
                ],
                "metallicFactor" : 0,
                "roughnessFactor" : 0.5
            }
        },
        {
            "doubleSided" : true,
            "emissiveFactor" : [
                0,
                0,
                0
            ],
            "name" : "Matcap orange",
            "pbrMetallicRoughness" : {
                "baseColorFactor" : [
                    0.9046609997749329,
                    0.36130672693252563,
                    0.11953850090503693,
                    1
                ],
                "metallicFactor" : 0,
                "roughnessFactor" : 0.5
            }
        },
        {
            "doubleSided" : true,
            "emissiveFactor" : [
                0,
                0,
                0
            ],
            "name" : "Matcap bleu fonce",
            "pbrMetallicRoughness" : {
                "baseColorFactor" : [
                    0.003536469768732786,
                    0.008653564378619194,
                    0.02037889137864113,
                    1
                ],
                "metallicFactor" : 0,
                "roughnessFactor" : 0.5
            }
        }
    ],
    "meshes" : [
        {
            "name" : "Sphere.011",
            "primitives" : [
                {
                    "attributes" : {
                        "POSITION" : 0,
                        "NORMAL" : 1
                    },
                    "indices" : 2,
                    "material" : 0
                },
                {
                    "attributes" : {
                        "POSITION" : 3,
                        "NORMAL" : 4
                    },
                    "indices" : 5,
                    "material" : 1
                },
                {
                    "attributes" : {
                        "POSITION" : 6,
                        "NORMAL" : 7
                    },
                    "indices" : 8,
                    "material" : 2
                }
            ]
        }
    ],
    "accessors" : [
        {
            "bufferView" : 0,
            "componentType" : 5126,
            "count" : 257,
            "max" : [
                30.214258193969727,
                10.833343505859375,
                66.93464660644531
            ],
            "min" : [
                28.88709831237793,
                8.973044395446777,
                65.60408020019531
            ],
            "type" : "VEC3"
        },
        {
            "bufferView" : 1,
            "componentType" : 5126,
            "count" : 257,
            "type" : "VEC3"
        },
        {
            "bufferView" : 2,
            "componentType" : 5123,
            "count" : 1530,
            "type" : "SCALAR"
        },
        {
            "bufferView" : 3,
            "componentType" : 5126,
            "count" : 291,
            "max" : [
                29.852954864501953,
                9.010013580322266,
                66.57373809814453
            ],
            "min" : [
                29.251203536987305,
                8.436044692993164,
                65.97130584716797
            ],
            "type" : "VEC3"
        },
        {
            "bufferView" : 4,
            "componentType" : 5126,
            "count" : 291,
            "type" : "VEC3"
        },
        {
            "bufferView" : 5,
            "componentType" : 5123,
            "count" : 1626,
            "type" : "SCALAR"
        },
        {
            "bufferView" : 6,
            "componentType" : 5126,
            "count" : 30,
            "max" : [
                29.705827713012695,
                8.532257080078125,
                66.4230728149414
            ],
            "min" : [
                29.397319793701172,
                8.450611114501953,
                66.116943359375
            ],
            "type" : "VEC3"
        },
        {
            "bufferView" : 7,
            "componentType" : 5126,
            "count" : 30,
            "type" : "VEC3"
        },
        {
            "bufferView" : 8,
            "componentType" : 5123,
            "count" : 120,
            "type" : "SCALAR"
        }
    ],
    "bufferViews" : [
        {
            "buffer" : 0,
            "byteLength" : 3084,
            "byteOffset" : 0
        },
        {
            "buffer" : 0,
            "byteLength" : 3084,
            "byteOffset" : 3084
        },
        {
            "buffer" : 0,
            "byteLength" : 3060,
            "byteOffset" : 6168
        },
        {
            "buffer" : 0,
            "byteLength" : 3492,
            "byteOffset" : 9228
        },
        {
            "buffer" : 0,
            "byteLength" : 3492,
            "byteOffset" : 12720
        },
        {
            "buffer" : 0,
            "byteLength" : 3252,
            "byteOffset" : 16212
        },
        {
            "buffer" : 0,
            "byteLength" : 360,
            "byteOffset" : 19464
        },
        {
            "buffer" : 0,
            "byteLength" : 360,
            "byteOffset" : 19824
        },
        {
            "buffer" : 0,
            "byteLength" : 240,
            "byteOffset" : 20184
        }
    ],
    "buffers" : [
        {
            "byteLength" : 20424,
            "uri" : "data:application/octet-stream;base64,"
        }
    ]
}
