{
    "asset" : {
        "generator" : "Khronos glTF Blender I/O v1.2.75",
        "version" : "2.0"
    },
    "scene" : 0,
    "scenes" : [
        {
            "name" : "Erwin",
            "nodes" : [
                5
            ]
        }
    ],
    "nodes" : [
        {
            "name" : "Spot.001",
            "rotation" : [
                0.6065070033073425,
                -0.030099790543317795,
                -0.23000487685203552,
                0.7604874968528748
            ],
            "scale" : [
                0.12525226175785065,
                0.12525226175785065,
                0.12525224685668945
            ],
            "translation" : [
                0.02393662929534912,
                0.02230072021484375,
                0.15053200721740723
            ]
        },
        {
            "children" : [
                0
            ],
            "mesh" : 0,
            "name" : "car_body.000",
            "translation" : [
                -1.146944284439087,
                -1.0946400165557861,
                -2.010690927505493
            ]
        },
        {
            "name" : "Spot",
            "rotation" : [
                0.6485307812690735,
                -0.3114370107650757,
                0.012679046019911766,
                0.6944451928138733
            ],
            "scale" : [
                0.12525224685668945,
                0.12525227665901184,
                0.12525224685668945
            ],
            "translation" : [
                -0.07140958309173584,
                0.02230072021484375,
                0.14247334003448486
            ]
        },
        {
            "children" : [
                2
            ],
            "mesh" : 1,
            "name" : "car_body.015",
            "translation" : [
                1.480290174484253,
                -1.0946400165557861,
                -1.7886337041854858
            ]
        },
        {
            "mesh" : 2,
            "name" : "Manche volant",
            "translation" : [
                -0.014644457027316093,
                2.544344663619995,
                0.46166273951530457
            ]
        },
        {
            "children" : [
                1,
                3,
                4
            ],
            "mesh" : 3,
            "name" : "Cloud",
            "translation" : [
                0,
                1.3618066077469848e-05,
                2.3200202576845186e-06
            ]
        }
    ],
    "materials" : [
        {
            "doubleSided" : true,
            "emissiveFactor" : [
                0,
                0,
                0
            ],
            "name" : "VolantMat",
            "pbrMetallicRoughness" : {
                "baseColorFactor" : [
                    0.015994930639863014,
                    0.015994930639863014,
                    0.015994930639863014,
                    1
                ],
                "metallicFactor" : 0.29999998211860657,
                "roughnessFactor" : 0.34545454382896423
            }
        },
        {
            "doubleSided" : true,
            "emissiveFactor" : [
                0,
                0,
                0
            ],
            "name" : "nuageMat",
            "pbrMetallicRoughness" : {
                "baseColorFactor" : [
                    0.8000000715255737,
                    0.7542654871940613,
                    0.6845876574516296,
                    1
                ],
                "metallicFactor" : 0,
                "roughnessFactor" : 0.18571427464485168
            }
        }
    ],
    "meshes" : [
        {
            "name" : "Cube.000",
            "primitives" : [
                {
                    "attributes" : {
                        "POSITION" : 0,
                        "NORMAL" : 1
                    },
                    "indices" : 2,
                    "material" : 0
                }
            ]
        },
        {
            "name" : "Cube.002",
            "primitives" : [
                {
                    "attributes" : {
                        "POSITION" : 3,
                        "NORMAL" : 4
                    },
                    "indices" : 5,
                    "material" : 0
                }
            ]
        },
        {
            "name" : "Cylinder",
            "primitives" : [
                {
                    "attributes" : {
                        "POSITION" : 6,
                        "NORMAL" : 7,
                        "TEXCOORD_0" : 8
                    },
                    "indices" : 9,
                    "material" : 0
                }
            ]
        },
        {
            "name" : "Sphere.000",
            "primitives" : [
                {
                    "attributes" : {
                        "POSITION" : 10,
                        "NORMAL" : 11,
                        "TEXCOORD_0" : 12
                    },
                    "indices" : 13,
                    "material" : 1
                }
            ]
        }
    ],
    "accessors" : [
        {
            "bufferView" : 0,
            "componentType" : 5126,
            "count" : 192,
            "max" : [
                0.4055747985839844,
                0.3964201807975769,
                0.5117014646530151
            ],
            "min" : [
                -0.47336673736572266,
                -0.44859540462493896,
                -0.37793469429016113
            ],
            "type" : "VEC3"
        },
        {
            "bufferView" : 1,
            "componentType" : 5126,
            "count" : 192,
            "type" : "VEC3"
        },
        {
            "bufferView" : 2,
            "componentType" : 5123,
            "count" : 972,
            "type" : "SCALAR"
        },
        {
            "bufferView" : 3,
            "componentType" : 5126,
            "count" : 192,
            "max" : [
                0.4873758554458618,
                0.3964200019836426,
                0.4913654327392578
            ],
            "min" : [
                -0.41236329078674316,
                -0.44859540462493896,
                -0.4165642261505127
            ],
            "type" : "VEC3"
        },
        {
            "bufferView" : 4,
            "componentType" : 5126,
            "count" : 192,
            "type" : "VEC3"
        },
        {
            "bufferView" : 5,
            "componentType" : 5123,
            "count" : 972,
            "type" : "SCALAR"
        },
        {
            "bufferView" : 6,
            "componentType" : 5126,
            "count" : 816,
            "max" : [
                0.9420427680015564,
                0.8685164451599121,
                0.7184247970581055
            ],
            "min" : [
                -0.9602496027946472,
                -1.5876898765563965,
                -2.137453079223633
            ],
            "type" : "VEC3"
        },
        {
            "bufferView" : 7,
            "componentType" : 5126,
            "count" : 816,
            "type" : "VEC3"
        },
        {
            "bufferView" : 8,
            "componentType" : 5126,
            "count" : 816,
            "type" : "VEC2"
        },
        {
            "bufferView" : 9,
            "componentType" : 5123,
            "count" : 3756,
            "type" : "SCALAR"
        },
        {
            "bufferView" : 10,
            "componentType" : 5126,
            "count" : 7826,
            "max" : [
                2.5327398777008057,
                2.5547609329223633,
                3.498520612716675
            ],
            "min" : [
                -2.545274496078491,
                -2.005437135696411,
                -3.1974587440490723
            ],
            "type" : "VEC3"
        },
        {
            "bufferView" : 11,
            "componentType" : 5126,
            "count" : 7826,
            "type" : "VEC3"
        },
        {
            "bufferView" : 12,
            "componentType" : 5126,
            "count" : 7826,
            "type" : "VEC2"
        },
        {
            "bufferView" : 13,
            "componentType" : 5123,
            "count" : 40320,
            "type" : "SCALAR"
        }
    ],
    "bufferViews" : [
        {
            "buffer" : 0,
            "byteLength" : 2304,
            "byteOffset" : 0
        },
        {
            "buffer" : 0,
            "byteLength" : 2304,
            "byteOffset" : 2304
        },
        {
            "buffer" : 0,
            "byteLength" : 1944,
            "byteOffset" : 4608
        },
        {
            "buffer" : 0,
            "byteLength" : 2304,
            "byteOffset" : 6552
        },
        {
            "buffer" : 0,
            "byteLength" : 2304,
            "byteOffset" : 8856
        },
        {
            "buffer" : 0,
            "byteLength" : 1944,
            "byteOffset" : 11160
        },
        {
            "buffer" : 0,
            "byteLength" : 9792,
            "byteOffset" : 13104
        },
        {
            "buffer" : 0,
            "byteLength" : 9792,
            "byteOffset" : 22896
        },
        {
            "buffer" : 0,
            "byteLength" : 6528,
            "byteOffset" : 32688
        },
        {
            "buffer" : 0,
            "byteLength" : 7512,
            "byteOffset" : 39216
        },
        {
            "buffer" : 0,
            "byteLength" : 93912,
            "byteOffset" : 46728
        },
        {
            "buffer" : 0,
            "byteLength" : 93912,
            "byteOffset" : 140640
        },
        {
            "buffer" : 0,
            "byteLength" : 62608,
            "byteOffset" : 234552
        },
        {
            "buffer" : 0,
            "byteLength" : 80640,
            "byteOffset" : 297160
        }
    ],
    "buffers" : [
        {
            "byteLength" : 377800,
            "uri" : "data:application/octet-stream;base64,"
        }
    ]
}
