{
    "asset" : {
        "generator" : "Khronos glTF Blender I/O v1.2.75",
        "version" : "2.0"
    },
    "scene" : 0,
    "scenes" : [
        {
            "name" : "Arcade",
            "nodes" : [
                0
            ]
        }
    ],
    "nodes" : [
        {
            "mesh" : 0,
            "name" : "crate2.003",
            "translation" : [
                90.11749267578125,
                1.0742193460464478,
                0
            ]
        }
    ],
    "materials" : [
        {
            "doubleSided" : true,
            "emissiveFactor" : [
                0,
                0,
                0
            ],
            "name" : "Matcap engrais",
            "pbrMetallicRoughness" : {
                "baseColorTexture" : {
                    "index" : 0,
                    "texCoord" : 0
                },
                "metallicFactor" : 0,
                "roughnessFactor" : 1
            }
        },
        {
            "doubleSided" : true,
            "emissiveFactor" : [
                0,
                0,
                0
            ],
            "name" : "Matcap marron",
            "pbrMetallicRoughness" : {
                "baseColorFactor" : [
                    0.41788527369499207,
                    0.1559264361858368,
                    0.08228272944688797,
                    1
                ],
                "metallicFactor" : 0,
                "roughnessFactor" : 1
            }
        },
        {
            "doubleSided" : true,
            "emissiveFactor" : [
                0,
                0,
                0
            ],
            "name" : "Matcap bleu fonce",
            "pbrMetallicRoughness" : {
                "baseColorFactor" : [
                    0.003536469768732786,
                    0.008653564378619194,
                    0.02037889137864113,
                    1
                ],
                "metallicFactor" : 0,
                "roughnessFactor" : 0.5
            }
        }
    ],
    "meshes" : [
        {
            "name" : "crateGeom2.003",
            "primitives" : [
                {
                    "attributes" : {
                        "POSITION" : 0,
                        "NORMAL" : 1,
                        "TEXCOORD_0" : 2
                    },
                    "indices" : 3,
                    "material" : 0
                },
                {
                    "attributes" : {
                        "POSITION" : 4,
                        "NORMAL" : 5,
                        "TEXCOORD_0" : 6
                    },
                    "indices" : 7,
                    "material" : 1
                },
                {
                    "attributes" : {
                        "POSITION" : 8,
                        "NORMAL" : 9,
                        "TEXCOORD_0" : 10
                    },
                    "indices" : 11,
                    "material" : 2
                }
            ]
        }
    ],
    "textures" : [
        {
            "sampler" : 0,
            "source" : 0
        }
    ],
    "images" : [
        {
            "bufferView" : 4,
            "mimeType" : "image/png",
            "name" : "seed"
        }
    ],
    "accessors" : [
        {
            "bufferView" : 0,
            "componentType" : 5126,
            "count" : 518,
            "max" : [
                1.000007152557373,
                1.0000025033950806,
                1
            ],
            "min" : [
                -0.999992847442627,
                -0.9999974966049194,
                -1
            ],
            "type" : "VEC3"
        },
        {
            "bufferView" : 1,
            "componentType" : 5126,
            "count" : 518,
            "type" : "VEC3"
        },
        {
            "bufferView" : 2,
            "componentType" : 5126,
            "count" : 518,
            "type" : "VEC2"
        },
        {
            "bufferView" : 3,
            "componentType" : 5123,
            "count" : 792,
            "type" : "SCALAR"
        },
        {
            "bufferView" : 5,
            "componentType" : 5126,
            "count" : 324,
            "max" : [
                1.000007152557373,
                1.0000025033950806,
                1
            ],
            "min" : [
                -0.999992847442627,
                -0.9999974966049194,
                -1
            ],
            "type" : "VEC3"
        },
        {
            "bufferView" : 6,
            "componentType" : 5126,
            "count" : 324,
            "type" : "VEC3"
        },
        {
            "bufferView" : 7,
            "componentType" : 5126,
            "count" : 324,
            "type" : "VEC2"
        },
        {
            "bufferView" : 8,
            "componentType" : 5123,
            "count" : 684,
            "type" : "SCALAR"
        },
        {
            "bufferView" : 9,
            "componentType" : 5126,
            "count" : 192,
            "max" : [
                1.000007152557373,
                1.0000025033950806,
                1
            ],
            "min" : [
                -0.999992847442627,
                -0.9999974966049194,
                -1
            ],
            "type" : "VEC3"
        },
        {
            "bufferView" : 10,
            "componentType" : 5126,
            "count" : 192,
            "type" : "VEC3"
        },
        {
            "bufferView" : 11,
            "componentType" : 5126,
            "count" : 192,
            "type" : "VEC2"
        },
        {
            "bufferView" : 12,
            "componentType" : 5123,
            "count" : 432,
            "type" : "SCALAR"
        }
    ],
    "bufferViews" : [
        {
            "buffer" : 0,
            "byteLength" : 6216,
            "byteOffset" : 0
        },
        {
            "buffer" : 0,
            "byteLength" : 6216,
            "byteOffset" : 6216
        },
        {
            "buffer" : 0,
            "byteLength" : 4144,
            "byteOffset" : 12432
        },
        {
            "buffer" : 0,
            "byteLength" : 1584,
            "byteOffset" : 16576
        },
        {
            "buffer" : 0,
            "byteLength" : 20809,
            "byteOffset" : 18160
        },
        {
            "buffer" : 0,
            "byteLength" : 3888,
            "byteOffset" : 38972
        },
        {
            "buffer" : 0,
            "byteLength" : 3888,
            "byteOffset" : 42860
        },
        {
            "buffer" : 0,
            "byteLength" : 2592,
            "byteOffset" : 46748
        },
        {
            "buffer" : 0,
            "byteLength" : 1368,
            "byteOffset" : 49340
        },
        {
            "buffer" : 0,
            "byteLength" : 2304,
            "byteOffset" : 50708
        },
        {
            "buffer" : 0,
            "byteLength" : 2304,
            "byteOffset" : 53012
        },
        {
            "buffer" : 0,
            "byteLength" : 1536,
            "byteOffset" : 55316
        },
        {
            "buffer" : 0,
            "byteLength" : 864,
            "byteOffset" : 56852
        }
    ],
    "samplers" : [
        {
            "magFilter" : 9729,
            "minFilter" : 9986
        }
    ],
    "buffers" : [
        {
            "byteLength" : 57716,
            "uri" : "data:application/octet-stream;base64,"
        }
    ]
}
