{
    "asset" : {
        "generator" : "Khronos glTF Blender I/O v1.2.75",
        "version" : "2.0"
    },
    "scene" : 0,
    "scenes" : [
        {
            "name" : "Arcade",
            "nodes" : [
                0
            ]
        }
    ],
    "nodes" : [
        {
            "mesh" : 0,
            "name" : "crate2.004",
            "translation" : [
                86.79733276367188,
                1.0742193460464478,
                0
            ]
        }
    ],
    "materials" : [
        {
            "doubleSided" : true,
            "emissiveFactor" : [
                0,
                0,
                0
            ],
            "name" : "Matcap explode",
            "pbrMetallicRoughness" : {
                "baseColorFactor" : [
                    0.7991032600402832,
                    0.027976348996162415,
                    0.03980615735054016,
                    1
                ],
                "metallicFactor" : 0,
                "roughnessFactor" : 1
            }
        },
        {
            "doubleSided" : true,
            "emissiveFactor" : [
                0,
                0,
                0
            ],
            "name" : "Matcap marron",
            "pbrMetallicRoughness" : {
                "baseColorFactor" : [
                    0.41788527369499207,
                    0.1559264361858368,
                    0.08228272944688797,
                    1
                ],
                "metallicFactor" : 0,
                "roughnessFactor" : 1
            }
        },
        {
            "doubleSided" : true,
            "emissiveFactor" : [
                0,
                0,
                0
            ],
            "name" : "Matcap bleu fonce",
            "pbrMetallicRoughness" : {
                "baseColorFactor" : [
                    0.003536469768732786,
                    0.008653564378619194,
                    0.02037889137864113,
                    1
                ],
                "metallicFactor" : 0,
                "roughnessFactor" : 0.5
            }
        }
    ],
    "meshes" : [
        {
            "name" : "crateGeom2.004",
            "primitives" : [
                {
                    "attributes" : {
                        "POSITION" : 0,
                        "NORMAL" : 1,
                        "TEXCOORD_0" : 2
                    },
                    "indices" : 3,
                    "material" : 0
                },
                {
                    "attributes" : {
                        "POSITION" : 4,
                        "NORMAL" : 5,
                        "TEXCOORD_0" : 6
                    },
                    "indices" : 7,
                    "material" : 1
                },
                {
                    "attributes" : {
                        "POSITION" : 8,
                        "NORMAL" : 9,
                        "TEXCOORD_0" : 10
                    },
                    "indices" : 11,
                    "material" : 2
                }
            ]
        }
    ],
    "accessors" : [
        {
            "bufferView" : 0,
            "componentType" : 5126,
            "count" : 488,
            "max" : [
                1.000007152557373,
                1.0000025033950806,
                1
            ],
            "min" : [
                -0.999992847442627,
                -0.9999974966049194,
                -1
            ],
            "type" : "VEC3"
        },
        {
            "bufferView" : 1,
            "componentType" : 5126,
            "count" : 488,
            "type" : "VEC3"
        },
        {
            "bufferView" : 2,
            "componentType" : 5126,
            "count" : 488,
            "type" : "VEC2"
        },
        {
            "bufferView" : 3,
            "componentType" : 5123,
            "count" : 792,
            "type" : "SCALAR"
        },
        {
            "bufferView" : 4,
            "componentType" : 5126,
            "count" : 324,
            "max" : [
                1.000007152557373,
                1.0000025033950806,
                1
            ],
            "min" : [
                -0.999992847442627,
                -0.9999974966049194,
                -1
            ],
            "type" : "VEC3"
        },
        {
            "bufferView" : 5,
            "componentType" : 5126,
            "count" : 324,
            "type" : "VEC3"
        },
        {
            "bufferView" : 6,
            "componentType" : 5126,
            "count" : 324,
            "type" : "VEC2"
        },
        {
            "bufferView" : 7,
            "componentType" : 5123,
            "count" : 684,
            "type" : "SCALAR"
        },
        {
            "bufferView" : 8,
            "componentType" : 5126,
            "count" : 192,
            "max" : [
                1.000007152557373,
                1.0000025033950806,
                1
            ],
            "min" : [
                -0.999992847442627,
                -0.9999974966049194,
                -1
            ],
            "type" : "VEC3"
        },
        {
            "bufferView" : 9,
            "componentType" : 5126,
            "count" : 192,
            "type" : "VEC3"
        },
        {
            "bufferView" : 10,
            "componentType" : 5126,
            "count" : 192,
            "type" : "VEC2"
        },
        {
            "bufferView" : 11,
            "componentType" : 5123,
            "count" : 432,
            "type" : "SCALAR"
        }
    ],
    "bufferViews" : [
        {
            "buffer" : 0,
            "byteLength" : 5856,
            "byteOffset" : 0
        },
        {
            "buffer" : 0,
            "byteLength" : 5856,
            "byteOffset" : 5856
        },
        {
            "buffer" : 0,
            "byteLength" : 3904,
            "byteOffset" : 11712
        },
        {
            "buffer" : 0,
            "byteLength" : 1584,
            "byteOffset" : 15616
        },
        {
            "buffer" : 0,
            "byteLength" : 3888,
            "byteOffset" : 17200
        },
        {
            "buffer" : 0,
            "byteLength" : 3888,
            "byteOffset" : 21088
        },
        {
            "buffer" : 0,
            "byteLength" : 2592,
            "byteOffset" : 24976
        },
        {
            "buffer" : 0,
            "byteLength" : 1368,
            "byteOffset" : 27568
        },
        {
            "buffer" : 0,
            "byteLength" : 2304,
            "byteOffset" : 28936
        },
        {
            "buffer" : 0,
            "byteLength" : 2304,
            "byteOffset" : 31240
        },
        {
            "buffer" : 0,
            "byteLength" : 1536,
            "byteOffset" : 33544
        },
        {
            "buffer" : 0,
            "byteLength" : 864,
            "byteOffset" : 35080
        }
    ],
    "buffers" : [
        {
            "byteLength" : 35944,
            "uri" : "data:application/octet-stream;base64,"
        }
    ]
}
