{
    "asset" : {
        "generator" : "Khronos glTF Blender I/O v1.2.75",
        "version" : "2.0"
    },
    "scene" : 0,
    "scenes" : [
        {
            "name" : "Erwin",
            "nodes" : [
                5,
                11
            ]
        }
    ],
    "nodes" : [
        {
            "name" : "Spot.001",
            "rotation" : [
                0.6065069437026978,
                -0.030099766328930855,
                -0.23000487685203552,
                0.76048743724823
            ],
            "scale" : [
                0.6579540967941284,
                0.6579540967941284,
                0.6579540371894836
            ],
            "translation" : [
                0.12574195861816406,
                0.11714839935302734,
                0.7907428741455078
            ]
        },
        {
            "children" : [
                0
            ],
            "mesh" : 0,
            "name" : "car_body.000",
            "translation" : [
                -6.024930953979492,
                -5.75010871887207,
                -10.562204360961914
            ]
        },
        {
            "name" : "Spot",
            "rotation" : [
                0.6485307216644287,
                -0.31143704056739807,
                0.012678948231041431,
                0.6944452524185181
            ],
            "scale" : [
                0.6579539775848389,
                0.657954216003418,
                0.6579540371894836
            ],
            "translation" : [
                -0.37511444091796875,
                0.11714649200439453,
                0.748417854309082
            ]
        },
        {
            "children" : [
                2
            ],
            "mesh" : 1,
            "name" : "car_body.015",
            "translation" : [
                7.77601432800293,
                -5.750107765197754,
                -9.39573860168457
            ]
        },
        {
            "mesh" : 2,
            "name" : "Manche volant",
            "translation" : [
                -0.076934814453125,
                13.365581512451172,
                2.425143241882324
            ]
        },
        {
            "children" : [
                1,
                3,
                4
            ],
            "mesh" : 3,
            "name" : "Cloud",
            "translation" : [
                -14.084890365600586,
                20.471637725830078,
                -6.803689956665039
            ]
        },
        {
            "mesh" : 4,
            "name" : "Erw_Body.003",
            "translation" : [
                -1.5593013763427734,
                12.93813705444336,
                1.356152057647705
            ]
        },
        {
            "mesh" : 5,
            "name" : "Erw_Glasses",
            "translation" : [
                3.1502914428710938,
                12.727230072021484,
                -7.594478130340576
            ]
        },
        {
            "mesh" : 6,
            "name" : "Erw_Mustache",
            "translation" : [
                4.661474227905273,
                6.142459869384766,
                -11.306587219238281
            ]
        },
        {
            "mesh" : 7,
            "name" : "Erw_Tie",
            "translation" : [
                0.4520244598388672,
                0.21703720092773438,
                -1.0799531936645508
            ]
        },
        {
            "mesh" : 8,
            "name" : "Paint_Can",
            "translation" : [
                -16.186969757080078,
                -8.47469425201416,
                -1.6294755935668945
            ]
        },
        {
            "children" : [
                6,
                7,
                8,
                9,
                10
            ],
            "mesh" : 9,
            "name" : "Erw_Body",
            "translation" : [
                23.23887062072754,
                19.314132690429688,
                7.412879467010498
            ]
        }
    ],
    "materials" : [
        {
            "doubleSided" : true,
            "emissiveFactor" : [
                0,
                0,
                0
            ],
            "name" : "VolantMat",
            "pbrMetallicRoughness" : {
                "baseColorFactor" : [
                    0.015994930639863014,
                    0.015994930639863014,
                    0.015994930639863014,
                    1
                ],
                "metallicFactor" : 0.29999998211860657,
                "roughnessFactor" : 0.34545454382896423
            }
        },
        {
            "doubleSided" : true,
            "emissiveFactor" : [
                0,
                0,
                0
            ],
            "name" : "nuageMat",
            "pbrMetallicRoughness" : {
                "baseColorFactor" : [
                    0.8000000715255737,
                    0.7542654871940613,
                    0.6845876574516296,
                    1
                ],
                "metallicFactor" : 0,
                "roughnessFactor" : 0.18571427464485168
            }
        },
        {
            "doubleSided" : true,
            "emissiveFactor" : [
                0,
                0,
                0
            ],
            "name" : "Erwin.001",
            "pbrMetallicRoughness" : {
                "baseColorTexture" : {
                    "index" : 0,
                    "texCoord" : 0
                },
                "metallicFactor" : 0,
                "roughnessFactor" : 0.5
            }
        },
        {
            "doubleSided" : true,
            "emissiveFactor" : [
                0,
                0,
                0
            ],
            "name" : "MoustacheMat",
            "pbrMetallicRoughness" : {
                "baseColorFactor" : [
                    0.6500048041343689,
                    0.6306730508804321,
                    0.6306730508804321,
                    1
                ],
                "metallicFactor" : 0,
                "roughnessFactor" : 0.5
            }
        },
        {
            "doubleSided" : true,
            "emissiveFactor" : [
                0,
                0,
                0
            ],
            "name" : "Material.001",
            "pbrMetallicRoughness" : {
                "baseColorTexture" : {
                    "index" : 1,
                    "texCoord" : 0
                },
                "metallicFactor" : 0.37435898184776306,
                "roughnessFactor" : 0.5
            }
        }
    ],
    "meshes" : [
        {
            "name" : "Cube.000",
            "primitives" : [
                {
                    "attributes" : {
                        "POSITION" : 0,
                        "NORMAL" : 1
                    },
                    "indices" : 2,
                    "material" : 0
                }
            ]
        },
        {
            "name" : "Cube.002",
            "primitives" : [
                {
                    "attributes" : {
                        "POSITION" : 3,
                        "NORMAL" : 4
                    },
                    "indices" : 5,
                    "material" : 0
                }
            ]
        },
        {
            "name" : "Cylinder",
            "primitives" : [
                {
                    "attributes" : {
                        "POSITION" : 6,
                        "NORMAL" : 7,
                        "TEXCOORD_0" : 8
                    },
                    "indices" : 9,
                    "material" : 0
                }
            ]
        },
        {
            "name" : "Sphere.000",
            "primitives" : [
                {
                    "attributes" : {
                        "POSITION" : 10,
                        "NORMAL" : 11,
                        "TEXCOORD_0" : 12
                    },
                    "indices" : 13,
                    "material" : 1
                }
            ]
        },
        {
            "name" : "Erw_Body.002",
            "primitives" : [
                {
                    "attributes" : {
                        "POSITION" : 14,
                        "NORMAL" : 15,
                        "TEXCOORD_0" : 16
                    },
                    "indices" : 17,
                    "material" : 2
                }
            ]
        },
        {
            "name" : "meshId0_name",
            "primitives" : [
                {
                    "attributes" : {
                        "POSITION" : 18,
                        "NORMAL" : 19,
                        "TEXCOORD_0" : 20
                    },
                    "indices" : 21,
                    "material" : 2
                }
            ]
        },
        {
            "name" : "meshId5_name",
            "primitives" : [
                {
                    "attributes" : {
                        "POSITION" : 22,
                        "NORMAL" : 23,
                        "TEXCOORD_0" : 24
                    },
                    "indices" : 25,
                    "material" : 3
                }
            ]
        },
        {
            "name" : "meshId1_name",
            "primitives" : [
                {
                    "attributes" : {
                        "POSITION" : 26,
                        "NORMAL" : 27,
                        "TEXCOORD_0" : 28
                    },
                    "indices" : 29,
                    "material" : 2
                }
            ]
        },
        {
            "name" : "Cylinder.001",
            "primitives" : [
                {
                    "attributes" : {
                        "POSITION" : 30,
                        "NORMAL" : 31,
                        "TEXCOORD_0" : 32,
                        "JOINTS_0" : 33,
                        "WEIGHTS_0" : 34
                    },
                    "indices" : 35,
                    "material" : 4
                }
            ]
        },
        {
            "name" : "meshId6_name",
            "primitives" : [
                {
                    "attributes" : {
                        "POSITION" : 36,
                        "NORMAL" : 37,
                        "TEXCOORD_0" : 38
                    },
                    "indices" : 39,
                    "material" : 2
                }
            ]
        }
    ],
    "textures" : [
        {
            "source" : 0
        },
        {
            "source" : 1
        }
    ],
    "images" : [
        {
            "bufferView" : 18,
            "mimeType" : "image/jpeg",
            "name" : "Erwin_albedonoir"
        },
        {
            "bufferView" : 37,
            "mimeType" : "image/png",
            "name" : "Spray_Paint_Can_UV_Layout"
        }
    ],
    "accessors" : [
        {
            "bufferView" : 0,
            "componentType" : 5126,
            "count" : 192,
            "max" : [
                2.1304988861083984,
                2.082408905029297,
                2.6879777908325195
            ],
            "min" : [
                -2.4866085052490234,
                -2.3564844131469727,
                -1.9853096008300781
            ],
            "type" : "VEC3"
        },
        {
            "bufferView" : 1,
            "componentType" : 5126,
            "count" : 192,
            "type" : "VEC3"
        },
        {
            "bufferView" : 2,
            "componentType" : 5123,
            "count" : 972,
            "type" : "SCALAR"
        },
        {
            "bufferView" : 3,
            "componentType" : 5126,
            "count" : 192,
            "max" : [
                2.5602035522460938,
                2.0824079513549805,
                2.5811595916748047
            ],
            "min" : [
                -2.1661548614501953,
                -2.3564844131469727,
                -2.188222885131836
            ],
            "type" : "VEC3"
        },
        {
            "bufferView" : 4,
            "componentType" : 5126,
            "count" : 192,
            "type" : "VEC3"
        },
        {
            "bufferView" : 5,
            "componentType" : 5123,
            "count" : 972,
            "type" : "SCALAR"
        },
        {
            "bufferView" : 6,
            "componentType" : 5126,
            "count" : 816,
            "max" : [
                4.9485931396484375,
                4.562355041503906,
                3.7739057540893555
            ],
            "min" : [
                -5.044208526611328,
                -8.340173721313477,
                -11.228109359741211
            ],
            "type" : "VEC3"
        },
        {
            "bufferView" : 7,
            "componentType" : 5126,
            "count" : 816,
            "type" : "VEC3"
        },
        {
            "bufferView" : 8,
            "componentType" : 5126,
            "count" : 816,
            "type" : "VEC2"
        },
        {
            "bufferView" : 9,
            "componentType" : 5123,
            "count" : 3756,
            "type" : "SCALAR"
        },
        {
            "bufferView" : 10,
            "componentType" : 5126,
            "count" : 7826,
            "max" : [
                13.30456829071045,
                13.420310974121094,
                18.377851486206055
            ],
            "min" : [
                -13.370401382446289,
                -10.534553527832031,
                -16.79633903503418
            ],
            "type" : "VEC3"
        },
        {
            "bufferView" : 11,
            "componentType" : 5126,
            "count" : 7826,
            "type" : "VEC3"
        },
        {
            "bufferView" : 12,
            "componentType" : 5126,
            "count" : 7826,
            "type" : "VEC2"
        },
        {
            "bufferView" : 13,
            "componentType" : 5123,
            "count" : 40320,
            "type" : "SCALAR"
        },
        {
            "bufferView" : 14,
            "componentType" : 5126,
            "count" : 238,
            "max" : [
                10.489315032958984,
                4.225698471069336,
                12.06536865234375
            ],
            "min" : [
                -8.226594924926758,
                -11.081764221191406,
                -11.09379768371582
            ],
            "type" : "VEC3"
        },
        {
            "bufferView" : 15,
            "componentType" : 5126,
            "count" : 238,
            "type" : "VEC3"
        },
        {
            "bufferView" : 16,
            "componentType" : 5126,
            "count" : 238,
            "type" : "VEC2"
        },
        {
            "bufferView" : 17,
            "componentType" : 5123,
            "count" : 636,
            "type" : "SCALAR"
        },
        {
            "bufferView" : 19,
            "componentType" : 5126,
            "count" : 474,
            "max" : [
                6.546998500823975,
                3.0465281009674072,
                13.7627534866333
            ],
            "min" : [
                -11.726139068603516,
                -2.611226797103882,
                -4.505392074584961
            ],
            "type" : "VEC3"
        },
        {
            "bufferView" : 20,
            "componentType" : 5126,
            "count" : 474,
            "type" : "VEC3"
        },
        {
            "bufferView" : 21,
            "componentType" : 5126,
            "count" : 474,
            "type" : "VEC2"
        },
        {
            "bufferView" : 22,
            "componentType" : 5123,
            "count" : 756,
            "type" : "SCALAR"
        },
        {
            "bufferView" : 23,
            "componentType" : 5126,
            "count" : 175,
            "max" : [
                3.62516450881958,
                3.0553343296051025,
                3.2178523540496826
            ],
            "min" : [
                -4.826135158538818,
                -1.3715912103652954,
                -1.6514445543289185
            ],
            "type" : "VEC3"
        },
        {
            "bufferView" : 24,
            "componentType" : 5126,
            "count" : 175,
            "type" : "VEC3"
        },
        {
            "bufferView" : 25,
            "componentType" : 5126,
            "count" : 175,
            "type" : "VEC2"
        },
        {
            "bufferView" : 26,
            "componentType" : 5123,
            "count" : 552,
            "type" : "SCALAR"
        },
        {
            "bufferView" : 27,
            "componentType" : 5126,
            "count" : 26,
            "max" : [
                1.070804238319397,
                3.0980193614959717,
                0.45966577529907227
            ],
            "min" : [
                -1.0598491430282593,
                -3.870954751968384,
                -0.4837183952331543
            ],
            "type" : "VEC3"
        },
        {
            "bufferView" : 28,
            "componentType" : 5126,
            "count" : 26,
            "type" : "VEC3"
        },
        {
            "bufferView" : 29,
            "componentType" : 5126,
            "count" : 26,
            "type" : "VEC2"
        },
        {
            "bufferView" : 30,
            "componentType" : 5123,
            "count" : 96,
            "type" : "SCALAR"
        },
        {
            "bufferView" : 31,
            "componentType" : 5126,
            "count" : 1527,
            "max" : [
                1.8628358840942383,
                2.9797255992889404,
                4.544192790985107
            ],
            "min" : [
                -5.165591239929199,
                -1.6726230382919312,
                -1.6736177206039429
            ],
            "type" : "VEC3"
        },
        {
            "bufferView" : 32,
            "componentType" : 5126,
            "count" : 1527,
            "type" : "VEC3"
        },
        {
            "bufferView" : 33,
            "componentType" : 5126,
            "count" : 1527,
            "type" : "VEC2"
        },
        {
            "bufferView" : 34,
            "componentType" : 5123,
            "count" : 1527,
            "type" : "VEC4"
        },
        {
            "bufferView" : 35,
            "componentType" : 5126,
            "count" : 1527,
            "type" : "VEC4"
        },
        {
            "bufferView" : 36,
            "componentType" : 5123,
            "count" : 7746,
            "type" : "SCALAR"
        },
        {
            "bufferView" : 38,
            "componentType" : 5126,
            "count" : 1456,
            "max" : [
                15.913786888122559,
                19.62579345703125,
                13.220685005187988
            ],
            "min" : [
                -20.275344848632812,
                -19.574512481689453,
                -12.862136840820312
            ],
            "type" : "VEC3"
        },
        {
            "bufferView" : 39,
            "componentType" : 5126,
            "count" : 1456,
            "type" : "VEC3"
        },
        {
            "bufferView" : 40,
            "componentType" : 5126,
            "count" : 1456,
            "type" : "VEC2"
        },
        {
            "bufferView" : 41,
            "componentType" : 5123,
            "count" : 5940,
            "type" : "SCALAR"
        }
    ],
    "bufferViews" : [
        {
            "buffer" : 0,
            "byteLength" : 2304,
            "byteOffset" : 0
        },
        {
            "buffer" : 0,
            "byteLength" : 2304,
            "byteOffset" : 2304
        },
        {
            "buffer" : 0,
            "byteLength" : 1944,
            "byteOffset" : 4608
        },
        {
            "buffer" : 0,
            "byteLength" : 2304,
            "byteOffset" : 6552
        },
        {
            "buffer" : 0,
            "byteLength" : 2304,
            "byteOffset" : 8856
        },
        {
            "buffer" : 0,
            "byteLength" : 1944,
            "byteOffset" : 11160
        },
        {
            "buffer" : 0,
            "byteLength" : 9792,
            "byteOffset" : 13104
        },
        {
            "buffer" : 0,
            "byteLength" : 9792,
            "byteOffset" : 22896
        },
        {
            "buffer" : 0,
            "byteLength" : 6528,
            "byteOffset" : 32688
        },
        {
            "buffer" : 0,
            "byteLength" : 7512,
            "byteOffset" : 39216
        },
        {
            "buffer" : 0,
            "byteLength" : 93912,
            "byteOffset" : 46728
        },
        {
            "buffer" : 0,
            "byteLength" : 93912,
            "byteOffset" : 140640
        },
        {
            "buffer" : 0,
            "byteLength" : 62608,
            "byteOffset" : 234552
        },
        {
            "buffer" : 0,
            "byteLength" : 80640,
            "byteOffset" : 297160
        },
        {
            "buffer" : 0,
            "byteLength" : 2856,
            "byteOffset" : 377800
        },
        {
            "buffer" : 0,
            "byteLength" : 2856,
            "byteOffset" : 380656
        },
        {
            "buffer" : 0,
            "byteLength" : 1904,
            "byteOffset" : 383512
        },
        {
            "buffer" : 0,
            "byteLength" : 1272,
            "byteOffset" : 385416
        },
        {
            "buffer" : 0,
            "byteLength" : 345066,
            "byteOffset" : 386688
        },
        {
            "buffer" : 0,
            "byteLength" : 5688,
            "byteOffset" : 731756
        },
        {
            "buffer" : 0,
            "byteLength" : 5688,
            "byteOffset" : 737444
        },
        {
            "buffer" : 0,
            "byteLength" : 3792,
            "byteOffset" : 743132
        },
        {
            "buffer" : 0,
            "byteLength" : 1512,
            "byteOffset" : 746924
        },
        {
            "buffer" : 0,
            "byteLength" : 2100,
            "byteOffset" : 748436
        },
        {
            "buffer" : 0,
            "byteLength" : 2100,
            "byteOffset" : 750536
        },
        {
            "buffer" : 0,
            "byteLength" : 1400,
            "byteOffset" : 752636
        },
        {
            "buffer" : 0,
            "byteLength" : 1104,
            "byteOffset" : 754036
        },
        {
            "buffer" : 0,
            "byteLength" : 312,
            "byteOffset" : 755140
        },
        {
            "buffer" : 0,
            "byteLength" : 312,
            "byteOffset" : 755452
        },
        {
            "buffer" : 0,
            "byteLength" : 208,
            "byteOffset" : 755764
        },
        {
            "buffer" : 0,
            "byteLength" : 192,
            "byteOffset" : 755972
        },
        {
            "buffer" : 0,
            "byteLength" : 18324,
            "byteOffset" : 756164
        },
        {
            "buffer" : 0,
            "byteLength" : 18324,
            "byteOffset" : 774488
        },
        {
            "buffer" : 0,
            "byteLength" : 12216,
            "byteOffset" : 792812
        },
        {
            "buffer" : 0,
            "byteLength" : 12216,
            "byteOffset" : 805028
        },
        {
            "buffer" : 0,
            "byteLength" : 24432,
            "byteOffset" : 817244
        },
        {
            "buffer" : 0,
            "byteLength" : 15492,
            "byteOffset" : 841676
        },
        {
            "buffer" : 0,
            "byteLength" : 55866,
            "byteOffset" : 857168
        },
        {
            "buffer" : 0,
            "byteLength" : 17472,
            "byteOffset" : 913036
        },
        {
            "buffer" : 0,
            "byteLength" : 17472,
            "byteOffset" : 930508
        },
        {
            "buffer" : 0,
            "byteLength" : 11648,
            "byteOffset" : 947980
        },
        {
            "buffer" : 0,
            "byteLength" : 11880,
            "byteOffset" : 959628
        }
    ],
    "buffers" : [
        {
            "byteLength" : 971508,
            "uri" : "data:application/octet-stream;base64,"
        }
    ]
}
