{
    "asset" : {
        "generator" : "Khronos glTF Blender I/O v1.2.75",
        "version" : "2.0"
    },
    "scene" : 0,
    "scenes" : [
        {
            "name" : "Scene",
            "nodes" : [
                0,
                1,
                2,
                3,
                4,
                5,
                6
            ]
        }
    ],
    "nodes" : [
        {
            "mesh" : 0,
            "name" : "Cube",
            "translation" : [
                0,
                0,
                2.864417791366577
            ]
        },
        {
            "mesh" : 1,
            "name" : "Plane"
        },
        {
            "mesh" : 2,
            "name" : "wLF",
            "translation" : [
                -1.3055875301361084,
                1.273618459701538,
                2.3777334690093994
            ]
        },
        {
            "mesh" : 3,
            "name" : "wRF",
            "translation" : [
                1.2798364162445068,
                1.273618459701538,
                2.3777334690093994
            ]
        },
        {
            "mesh" : 4,
            "name" : "wBL",
            "translation" : [
                -1.3055875301361084,
                -1.2687039375305176,
                2.3777334690093994
            ]
        },
        {
            "mesh" : 5,
            "name" : "wBR",
            "translation" : [
                1.2798364162445068,
                -1.2687039375305176,
                2.3777334690093994
            ]
        },
        {
            "mesh" : 6,
            "name" : "obstacle",
            "translation" : [
                0,
                18.742294311523438,
                1
            ]
        }
    ],
    "materials" : [
        {
            "doubleSided" : true,
            "emissiveFactor" : [
                0,
                0,
                0
            ],
            "name" : "Material",
            "pbrMetallicRoughness" : {
                "baseColorFactor" : [
                    0.07310555130243301,
                    0.32637539505958557,
                    0.06422343105077744,
                    1
                ],
                "metallicFactor" : 0,
                "roughnessFactor" : 0.4000000059604645
            }
        },
        {
            "doubleSided" : true,
            "emissiveFactor" : [
                0,
                0,
                0
            ],
            "name" : "Material.001",
            "pbrMetallicRoughness" : {
                "baseColorFactor" : [
                    0.8000000715255737,
                    0.06273561716079712,
                    0.0680837631225586,
                    1
                ],
                "metallicFactor" : 0,
                "roughnessFactor" : 0.5
            }
        }
    ],
    "meshes" : [
        {
            "name" : "Cube",
            "primitives" : [
                {
                    "attributes" : {
                        "POSITION" : 0,
                        "NORMAL" : 1,
                        "TEXCOORD_0" : 2
                    },
                    "indices" : 3,
                    "material" : 0
                }
            ]
        },
        {
            "name" : "Plane",
            "primitives" : [
                {
                    "attributes" : {
                        "POSITION" : 4,
                        "NORMAL" : 5,
                        "TEXCOORD_0" : 6
                    },
                    "indices" : 7,
                    "material" : 1
                }
            ]
        },
        {
            "name" : "Circle",
            "primitives" : [
                {
                    "attributes" : {
                        "POSITION" : 8,
                        "NORMAL" : 9,
                        "TEXCOORD_0" : 10
                    },
                    "indices" : 11
                }
            ]
        },
        {
            "name" : "Circle.001",
            "primitives" : [
                {
                    "attributes" : {
                        "POSITION" : 12,
                        "NORMAL" : 13,
                        "TEXCOORD_0" : 14
                    },
                    "indices" : 11
                }
            ]
        },
        {
            "name" : "Circle.002",
            "primitives" : [
                {
                    "attributes" : {
                        "POSITION" : 15,
                        "NORMAL" : 16,
                        "TEXCOORD_0" : 17
                    },
                    "indices" : 11
                }
            ]
        },
        {
            "name" : "Circle.003",
            "primitives" : [
                {
                    "attributes" : {
                        "POSITION" : 18,
                        "NORMAL" : 19,
                        "TEXCOORD_0" : 20
                    },
                    "indices" : 11
                }
            ]
        },
        {
            "name" : "Cube.001",
            "primitives" : [
                {
                    "attributes" : {
                        "POSITION" : 21,
                        "NORMAL" : 22,
                        "TEXCOORD_0" : 23
                    },
                    "indices" : 3
                }
            ]
        }
    ],
    "accessors" : [
        {
            "bufferView" : 0,
            "componentType" : 5126,
            "count" : 24,
            "max" : [
                1,
                1.2831050157546997,
                0.4999997615814209
            ],
            "min" : [
                -1,
                -1.2831050157546997,
                -0.4999997615814209
            ],
            "type" : "VEC3"
        },
        {
            "bufferView" : 1,
            "componentType" : 5126,
            "count" : 24,
            "type" : "VEC3"
        },
        {
            "bufferView" : 2,
            "componentType" : 5126,
            "count" : 24,
            "type" : "VEC2"
        },
        {
            "bufferView" : 3,
            "componentType" : 5123,
            "count" : 36,
            "type" : "SCALAR"
        },
        {
            "bufferView" : 4,
            "componentType" : 5126,
            "count" : 4,
            "max" : [
                6.593293190002441,
                6.593293190002441,
                0
            ],
            "min" : [
                -6.593293190002441,
                -6.593293190002441,
                0
            ],
            "type" : "VEC3"
        },
        {
            "bufferView" : 5,
            "componentType" : 5126,
            "count" : 4,
            "type" : "VEC3"
        },
        {
            "bufferView" : 6,
            "componentType" : 5126,
            "count" : 4,
            "type" : "VEC2"
        },
        {
            "bufferView" : 7,
            "componentType" : 5123,
            "count" : 6,
            "type" : "SCALAR"
        },
        {
            "bufferView" : 8,
            "componentType" : 5126,
            "count" : 192,
            "max" : [
                0.10799670219421387,
                0.5195667743682861,
                0.5195672512054443
            ],
            "min" : [
                -0.10799598693847656,
                -0.5195675492286682,
                -0.5195670127868652
            ],
            "type" : "VEC3"
        },
        {
            "bufferView" : 9,
            "componentType" : 5126,
            "count" : 192,
            "type" : "VEC3"
        },
        {
            "bufferView" : 10,
            "componentType" : 5126,
            "count" : 192,
            "type" : "VEC2"
        },
        {
            "bufferView" : 11,
            "componentType" : 5123,
            "count" : 372,
            "type" : "SCALAR"
        },
        {
            "bufferView" : 12,
            "componentType" : 5126,
            "count" : 192,
            "max" : [
                0.10799622535705566,
                0.5195667743682861,
                0.5195672512054443
            ],
            "min" : [
                -0.10799646377563477,
                -0.5195675492286682,
                -0.5195670127868652
            ],
            "type" : "VEC3"
        },
        {
            "bufferView" : 13,
            "componentType" : 5126,
            "count" : 192,
            "type" : "VEC3"
        },
        {
            "bufferView" : 14,
            "componentType" : 5126,
            "count" : 192,
            "type" : "VEC2"
        },
        {
            "bufferView" : 15,
            "componentType" : 5126,
            "count" : 192,
            "max" : [
                0.10799670219421387,
                0.5195670127868652,
                0.5195672512054443
            ],
            "min" : [
                -0.10799598693847656,
                -0.5195672512054443,
                -0.5195670127868652
            ],
            "type" : "VEC3"
        },
        {
            "bufferView" : 16,
            "componentType" : 5126,
            "count" : 192,
            "type" : "VEC3"
        },
        {
            "bufferView" : 17,
            "componentType" : 5126,
            "count" : 192,
            "type" : "VEC2"
        },
        {
            "bufferView" : 18,
            "componentType" : 5126,
            "count" : 192,
            "max" : [
                0.10799622535705566,
                0.5195670127868652,
                0.5195672512054443
            ],
            "min" : [
                -0.10799646377563477,
                -0.5195672512054443,
                -0.5195670127868652
            ],
            "type" : "VEC3"
        },
        {
            "bufferView" : 19,
            "componentType" : 5126,
            "count" : 192,
            "type" : "VEC3"
        },
        {
            "bufferView" : 20,
            "componentType" : 5126,
            "count" : 192,
            "type" : "VEC2"
        },
        {
            "bufferView" : 21,
            "componentType" : 5126,
            "count" : 24,
            "max" : [
                1,
                1,
                1
            ],
            "min" : [
                -1,
                -1,
                -1
            ],
            "type" : "VEC3"
        },
        {
            "bufferView" : 22,
            "componentType" : 5126,
            "count" : 24,
            "type" : "VEC3"
        },
        {
            "bufferView" : 23,
            "componentType" : 5126,
            "count" : 24,
            "type" : "VEC2"
        }
    ],
    "bufferViews" : [
        {
            "buffer" : 0,
            "byteLength" : 288,
            "byteOffset" : 0
        },
        {
            "buffer" : 0,
            "byteLength" : 288,
            "byteOffset" : 288
        },
        {
            "buffer" : 0,
            "byteLength" : 192,
            "byteOffset" : 576
        },
        {
            "buffer" : 0,
            "byteLength" : 72,
            "byteOffset" : 768
        },
        {
            "buffer" : 0,
            "byteLength" : 48,
            "byteOffset" : 840
        },
        {
            "buffer" : 0,
            "byteLength" : 48,
            "byteOffset" : 888
        },
        {
            "buffer" : 0,
            "byteLength" : 32,
            "byteOffset" : 936
        },
        {
            "buffer" : 0,
            "byteLength" : 12,
            "byteOffset" : 968
        },
        {
            "buffer" : 0,
            "byteLength" : 2304,
            "byteOffset" : 980
        },
        {
            "buffer" : 0,
            "byteLength" : 2304,
            "byteOffset" : 3284
        },
        {
            "buffer" : 0,
            "byteLength" : 1536,
            "byteOffset" : 5588
        },
        {
            "buffer" : 0,
            "byteLength" : 744,
            "byteOffset" : 7124
        },
        {
            "buffer" : 0,
            "byteLength" : 2304,
            "byteOffset" : 7868
        },
        {
            "buffer" : 0,
            "byteLength" : 2304,
            "byteOffset" : 10172
        },
        {
            "buffer" : 0,
            "byteLength" : 1536,
            "byteOffset" : 12476
        },
        {
            "buffer" : 0,
            "byteLength" : 2304,
            "byteOffset" : 14012
        },
        {
            "buffer" : 0,
            "byteLength" : 2304,
            "byteOffset" : 16316
        },
        {
            "buffer" : 0,
            "byteLength" : 1536,
            "byteOffset" : 18620
        },
        {
            "buffer" : 0,
            "byteLength" : 2304,
            "byteOffset" : 20156
        },
        {
            "buffer" : 0,
            "byteLength" : 2304,
            "byteOffset" : 22460
        },
        {
            "buffer" : 0,
            "byteLength" : 1536,
            "byteOffset" : 24764
        },
        {
            "buffer" : 0,
            "byteLength" : 288,
            "byteOffset" : 26300
        },
        {
            "buffer" : 0,
            "byteLength" : 288,
            "byteOffset" : 26588
        },
        {
            "buffer" : 0,
            "byteLength" : 192,
            "byteOffset" : 26876
        }
    ],
    "buffers" : [
        {
            "byteLength" : 27068,
            "uri" : "data:application/octet-stream;base64,"
        }
    ]
}
