{
    "asset" : {
        "generator" : "Khronos glTF Blender I/O v1.2.75",
        "version" : "2.0"
    },
    "scene" : 0,
    "scenes" : [
        {
            "name" : "Arcade",
            "nodes" : [
                0
            ]
        }
    ],
    "nodes" : [
        {
            "mesh" : 0,
            "name" : "Cube.005",
            "translation" : [
                32.25642013549805,
                2.3015403747558594,
                22.219406127929688
            ]
        }
    ],
    "materials" : [
        {
            "doubleSided" : true,
            "emissiveFactor" : [
                0,
                0,
                0
            ],
            "name" : "Matcap bleu",
            "pbrMetallicRoughness" : {
                "baseColorFactor" : [
                    0.019382361322641373,
                    0.061246052384376526,
                    0.08650046586990356,
                    1
                ],
                "metallicFactor" : 0,
                "roughnessFactor" : 0.5
            }
        },
        {
            "doubleSided" : true,
            "emissiveFactor" : [
                0,
                0,
                0
            ],
            "name" : "Matcap bleu fonce",
            "pbrMetallicRoughness" : {
                "baseColorFactor" : [
                    0.003536469768732786,
                    0.008653564378619194,
                    0.02037889137864113,
                    1
                ],
                "metallicFactor" : 0,
                "roughnessFactor" : 0.5
            }
        },
        {
            "doubleSided" : true,
            "emissiveFactor" : [
                0,
                0,
                0
            ],
            "name" : "Matcap blanc",
            "pbrMetallicRoughness" : {
                "baseColorFactor" : [
                    0.5382258296012878,
                    0.5382258296012878,
                    0.5382258296012878,
                    1
                ],
                "metallicFactor" : 0,
                "roughnessFactor" : 1
            }
        }
    ],
    "meshes" : [
        {
            "name" : "Cube.008",
            "primitives" : [
                {
                    "attributes" : {
                        "POSITION" : 0,
                        "NORMAL" : 1,
                        "TEXCOORD_0" : 2
                    },
                    "indices" : 3,
                    "material" : 0
                },
                {
                    "attributes" : {
                        "POSITION" : 4,
                        "NORMAL" : 5,
                        "TEXCOORD_0" : 6
                    },
                    "indices" : 7,
                    "material" : 1
                },
                {
                    "attributes" : {
                        "POSITION" : 8,
                        "NORMAL" : 9,
                        "TEXCOORD_0" : 10
                    },
                    "indices" : 11,
                    "material" : 2
                }
            ]
        }
    ],
    "accessors" : [
        {
            "bufferView" : 0,
            "componentType" : 5126,
            "count" : 170,
            "max" : [
                2.5170516967773438,
                9.388431549072266,
                0.2273712158203125
            ],
            "min" : [
                -2.5170516967773438,
                -2.3540120124816895,
                -0.2273712158203125
            ],
            "type" : "VEC3"
        },
        {
            "bufferView" : 1,
            "componentType" : 5126,
            "count" : 170,
            "type" : "VEC3"
        },
        {
            "bufferView" : 2,
            "componentType" : 5126,
            "count" : 170,
            "type" : "VEC2"
        },
        {
            "bufferView" : 3,
            "componentType" : 5123,
            "count" : 282,
            "type" : "SCALAR"
        },
        {
            "bufferView" : 4,
            "componentType" : 5126,
            "count" : 4,
            "max" : [
                2.4257049560546875,
                8.20152473449707,
                0.15699195861816406
            ],
            "min" : [
                -2.4257068634033203,
                2.6171770095825195,
                0.15699195861816406
            ],
            "type" : "VEC3"
        },
        {
            "bufferView" : 5,
            "componentType" : 5126,
            "count" : 4,
            "type" : "VEC3"
        },
        {
            "bufferView" : 6,
            "componentType" : 5126,
            "count" : 4,
            "type" : "VEC2"
        },
        {
            "bufferView" : 7,
            "componentType" : 5123,
            "count" : 6,
            "type" : "SCALAR"
        },
        {
            "bufferView" : 8,
            "componentType" : 5126,
            "count" : 2242,
            "max" : [
                2.1365280151367188,
                8.969101905822754,
                0.22153282165527344
            ],
            "min" : [
                -2.047025680541992,
                8.590401649475098,
                0.06153297424316406
            ],
            "type" : "VEC3"
        },
        {
            "bufferView" : 9,
            "componentType" : 5126,
            "count" : 2242,
            "type" : "VEC3"
        },
        {
            "bufferView" : 10,
            "componentType" : 5126,
            "count" : 2242,
            "type" : "VEC2"
        },
        {
            "bufferView" : 11,
            "componentType" : 5123,
            "count" : 5664,
            "type" : "SCALAR"
        }
    ],
    "bufferViews" : [
        {
            "buffer" : 0,
            "byteLength" : 2040,
            "byteOffset" : 0
        },
        {
            "buffer" : 0,
            "byteLength" : 2040,
            "byteOffset" : 2040
        },
        {
            "buffer" : 0,
            "byteLength" : 1360,
            "byteOffset" : 4080
        },
        {
            "buffer" : 0,
            "byteLength" : 564,
            "byteOffset" : 5440
        },
        {
            "buffer" : 0,
            "byteLength" : 48,
            "byteOffset" : 6004
        },
        {
            "buffer" : 0,
            "byteLength" : 48,
            "byteOffset" : 6052
        },
        {
            "buffer" : 0,
            "byteLength" : 32,
            "byteOffset" : 6100
        },
        {
            "buffer" : 0,
            "byteLength" : 12,
            "byteOffset" : 6132
        },
        {
            "buffer" : 0,
            "byteLength" : 26904,
            "byteOffset" : 6144
        },
        {
            "buffer" : 0,
            "byteLength" : 26904,
            "byteOffset" : 33048
        },
        {
            "buffer" : 0,
            "byteLength" : 17936,
            "byteOffset" : 59952
        },
        {
            "buffer" : 0,
            "byteLength" : 11328,
            "byteOffset" : 77888
        }
    ],
    "buffers" : [
        {
            "byteLength" : 89216,
            "uri" : "data:application/octet-stream;base64,"
        }
    ]
}
