{
    "asset" : {
        "generator" : "Khronos glTF Blender I/O v1.2.75",
        "version" : "2.0"
    },
    "scene" : 0,
    "scenes" : [
        {
            "name" : "Arcade",
            "nodes" : [
                0
            ]
        }
    ],
    "nodes" : [
        {
            "mesh" : 0,
            "name" : "Cube.060",
            "translation" : [
                -10.756513595581055,
                2.562838077545166,
                -45.48971939086914
            ]
        }
    ],
    "materials" : [
        {
            "doubleSided" : true,
            "emissiveFactor" : [
                0,
                0,
                0
            ],
            "name" : "Matcap beige",
            "pbrMetallicRoughness" : {
                "baseColorFactor" : [
                    0.8549798727035522,
                    0.40275558829307556,
                    0.2856772541999817,
                    1
                ],
                "metallicFactor" : 0,
                "roughnessFactor" : 0.5
            }
        },
        {
            "doubleSided" : true,
            "emissiveFactor" : [
                0,
                0,
                0
            ],
            "name" : "Matcap marron",
            "pbrMetallicRoughness" : {
                "baseColorFactor" : [
                    0.41788527369499207,
                    0.1559264361858368,
                    0.08228272944688797,
                    1
                ],
                "metallicFactor" : 0,
                "roughnessFactor" : 1
            }
        }
    ],
    "meshes" : [
        {
            "name" : "Cube.025",
            "primitives" : [
                {
                    "attributes" : {
                        "POSITION" : 0,
                        "NORMAL" : 1,
                        "TEXCOORD_0" : 2
                    },
                    "indices" : 3,
                    "material" : 0
                },
                {
                    "attributes" : {
                        "POSITION" : 4,
                        "NORMAL" : 5,
                        "TEXCOORD_0" : 6
                    },
                    "indices" : 7,
                    "material" : 1
                }
            ]
        }
    ],
    "accessors" : [
        {
            "bufferView" : 0,
            "componentType" : 5126,
            "count" : 24,
            "max" : [
                0.5859346389770508,
                2.6316895484924316,
                0.12371826171875
            ],
            "min" : [
                -0.5939178466796875,
                0.9764959812164307,
                0.06357574462890625
            ],
            "type" : "VEC3"
        },
        {
            "bufferView" : 1,
            "componentType" : 5126,
            "count" : 24,
            "type" : "VEC3"
        },
        {
            "bufferView" : 2,
            "componentType" : 5126,
            "count" : 24,
            "type" : "VEC2"
        },
        {
            "bufferView" : 3,
            "componentType" : 5123,
            "count" : 36,
            "type" : "SCALAR"
        },
        {
            "bufferView" : 4,
            "componentType" : 5126,
            "count" : 54,
            "max" : [
                0.08639907836914062,
                1.4242210388183594,
                0.12126922607421875
            ],
            "min" : [
                -0.09438514709472656,
                -2.6269500255584717,
                -0.13817977905273438
            ],
            "type" : "VEC3"
        },
        {
            "bufferView" : 5,
            "componentType" : 5126,
            "count" : 54,
            "type" : "VEC3"
        },
        {
            "bufferView" : 6,
            "componentType" : 5126,
            "count" : 54,
            "type" : "VEC2"
        },
        {
            "bufferView" : 7,
            "componentType" : 5123,
            "count" : 132,
            "type" : "SCALAR"
        }
    ],
    "bufferViews" : [
        {
            "buffer" : 0,
            "byteLength" : 288,
            "byteOffset" : 0
        },
        {
            "buffer" : 0,
            "byteLength" : 288,
            "byteOffset" : 288
        },
        {
            "buffer" : 0,
            "byteLength" : 192,
            "byteOffset" : 576
        },
        {
            "buffer" : 0,
            "byteLength" : 72,
            "byteOffset" : 768
        },
        {
            "buffer" : 0,
            "byteLength" : 648,
            "byteOffset" : 840
        },
        {
            "buffer" : 0,
            "byteLength" : 648,
            "byteOffset" : 1488
        },
        {
            "buffer" : 0,
            "byteLength" : 432,
            "byteOffset" : 2136
        },
        {
            "buffer" : 0,
            "byteLength" : 264,
            "byteOffset" : 2568
        }
    ],
    "buffers" : [
        {
            "byteLength" : 2832,
            "uri" : "data:application/octet-stream;base64,"
        }
    ]
}
