{
    "asset" : {
        "generator" : "Khronos glTF Blender I/O v1.2.75",
        "version" : "2.0"
    },
    "scene" : 0,
    "scenes" : [
        {
            "name" : "Arcade",
            "nodes" : [
                0
            ]
        }
    ],
    "nodes" : [
        {
            "mesh" : 0,
            "name" : "radio"
        }
    ],
    "materials" : [
        {
            "doubleSided" : true,
            "emissiveFactor" : [
                0,
                0,
                0
            ],
            "name" : "Matcap turquoise",
            "pbrMetallicRoughness" : {
                "baseColorFactor" : [
                    0.02315327525138855,
                    0.33716368675231934,
                    0.2746773064136505,
                    1
                ],
                "metallicFactor" : 0,
                "roughnessFactor" : 0.5
            }
        },
        {
            "doubleSided" : true,
            "emissiveFactor" : [
                0,
                0,
                0
            ],
            "name" : "Matcap bleu fonce",
            "pbrMetallicRoughness" : {
                "baseColorFactor" : [
                    0.003536469768732786,
                    0.008653564378619194,
                    0.02037889137864113,
                    1
                ],
                "metallicFactor" : 0,
                "roughnessFactor" : 0.5
            }
        },
        {
            "doubleSided" : true,
            "emissiveFactor" : [
                0,
                0,
                0
            ],
            "name" : "Matcap beige",
            "pbrMetallicRoughness" : {
                "baseColorFactor" : [
                    0.8549798727035522,
                    0.40275558829307556,
                    0.2856772541999817,
                    1
                ],
                "metallicFactor" : 0,
                "roughnessFactor" : 0.5
            }
        },
        {
            "doubleSided" : true,
            "emissiveFactor" : [
                0,
                0,
                0
            ],
            "name" : "Matcap rouge",
            "pbrMetallicRoughness" : {
                "baseColorFactor" : [
                    0.7991030216217041,
                    0.15896075963974,
                    0.08228272199630737,
                    1
                ],
                "metallicFactor" : 0,
                "roughnessFactor" : 0.5
            }
        }
    ],
    "meshes" : [
        {
            "name" : "radio",
            "primitives" : [
                {
                    "attributes" : {
                        "POSITION" : 0,
                        "NORMAL" : 1,
                        "TEXCOORD_0" : 2
                    },
                    "indices" : 3,
                    "material" : 0
                },
                {
                    "attributes" : {
                        "POSITION" : 4,
                        "NORMAL" : 5,
                        "TEXCOORD_0" : 6
                    },
                    "indices" : 7,
                    "material" : 1
                },
                {
                    "attributes" : {
                        "POSITION" : 8,
                        "NORMAL" : 9,
                        "TEXCOORD_0" : 10
                    },
                    "indices" : 11,
                    "material" : 2
                },
                {
                    "attributes" : {
                        "POSITION" : 12,
                        "NORMAL" : 13,
                        "TEXCOORD_0" : 14
                    },
                    "indices" : 15,
                    "material" : 3
                }
            ]
        }
    ],
    "accessors" : [
        {
            "bufferView" : 0,
            "componentType" : 5126,
            "count" : 325,
            "max" : [
                45.69954299926758,
                3.8996028900146484,
                -44.77439880371094
            ],
            "min" : [
                44.35231399536133,
                3.021355390548706,
                -45.71120834350586
            ],
            "type" : "VEC3"
        },
        {
            "bufferView" : 1,
            "componentType" : 5126,
            "count" : 325,
            "type" : "VEC3"
        },
        {
            "bufferView" : 2,
            "componentType" : 5126,
            "count" : 325,
            "type" : "VEC2"
        },
        {
            "bufferView" : 3,
            "componentType" : 5123,
            "count" : 909,
            "type" : "SCALAR"
        },
        {
            "bufferView" : 4,
            "componentType" : 5126,
            "count" : 185,
            "max" : [
                45.5202751159668,
                4.105192184448242,
                -44.79255294799805
            ],
            "min" : [
                44.57645034790039,
                3.192227602005005,
                -45.51075744628906
            ],
            "type" : "VEC3"
        },
        {
            "bufferView" : 5,
            "componentType" : 5126,
            "count" : 185,
            "type" : "VEC3"
        },
        {
            "bufferView" : 6,
            "componentType" : 5126,
            "count" : 185,
            "type" : "VEC2"
        },
        {
            "bufferView" : 7,
            "componentType" : 5123,
            "count" : 519,
            "type" : "SCALAR"
        },
        {
            "bufferView" : 8,
            "componentType" : 5126,
            "count" : 239,
            "max" : [
                45.7119026184082,
                4.059195041656494,
                -44.77439880371094
            ],
            "min" : [
                44.33303451538086,
                3.0792574882507324,
                -45.674156188964844
            ],
            "type" : "VEC3"
        },
        {
            "bufferView" : 9,
            "componentType" : 5126,
            "count" : 239,
            "type" : "VEC3"
        },
        {
            "bufferView" : 10,
            "componentType" : 5126,
            "count" : 239,
            "type" : "VEC2"
        },
        {
            "bufferView" : 11,
            "componentType" : 5123,
            "count" : 594,
            "type" : "SCALAR"
        },
        {
            "bufferView" : 12,
            "componentType" : 5126,
            "count" : 3123,
            "max" : [
                44.88459396362305,
                3.691153049468994,
                -45.1293830871582
            ],
            "min" : [
                44.41709899902344,
                3.262871503829956,
                -45.396217346191406
            ],
            "type" : "VEC3"
        },
        {
            "bufferView" : 13,
            "componentType" : 5126,
            "count" : 3123,
            "type" : "VEC3"
        },
        {
            "bufferView" : 14,
            "componentType" : 5126,
            "count" : 3123,
            "type" : "VEC2"
        },
        {
            "bufferView" : 15,
            "componentType" : 5123,
            "count" : 3939,
            "type" : "SCALAR"
        }
    ],
    "bufferViews" : [
        {
            "buffer" : 0,
            "byteLength" : 3900,
            "byteOffset" : 0
        },
        {
            "buffer" : 0,
            "byteLength" : 3900,
            "byteOffset" : 3900
        },
        {
            "buffer" : 0,
            "byteLength" : 2600,
            "byteOffset" : 7800
        },
        {
            "buffer" : 0,
            "byteLength" : 1818,
            "byteOffset" : 10400
        },
        {
            "buffer" : 0,
            "byteLength" : 2220,
            "byteOffset" : 12220
        },
        {
            "buffer" : 0,
            "byteLength" : 2220,
            "byteOffset" : 14440
        },
        {
            "buffer" : 0,
            "byteLength" : 1480,
            "byteOffset" : 16660
        },
        {
            "buffer" : 0,
            "byteLength" : 1038,
            "byteOffset" : 18140
        },
        {
            "buffer" : 0,
            "byteLength" : 2868,
            "byteOffset" : 19180
        },
        {
            "buffer" : 0,
            "byteLength" : 2868,
            "byteOffset" : 22048
        },
        {
            "buffer" : 0,
            "byteLength" : 1912,
            "byteOffset" : 24916
        },
        {
            "buffer" : 0,
            "byteLength" : 1188,
            "byteOffset" : 26828
        },
        {
            "buffer" : 0,
            "byteLength" : 37476,
            "byteOffset" : 28016
        },
        {
            "buffer" : 0,
            "byteLength" : 37476,
            "byteOffset" : 65492
        },
        {
            "buffer" : 0,
            "byteLength" : 24984,
            "byteOffset" : 102968
        },
        {
            "buffer" : 0,
            "byteLength" : 7878,
            "byteOffset" : 127952
        }
    ],
    "buffers" : [
        {
            "byteLength" : 135832,
            "uri" : "data:application/octet-stream;base64,"
        }
    ]
}
